<?xml version="1.0" encoding="UTF-8" standalone="no"?>
<!DOCTYPE svg PUBLIC "-//W3C//DTD SVG 1.1//EN" "http://www.w3.org/Graphics/SVG/1.1/DTD/svg11.dtd">
<svg width="100%" height="100%" viewBox="0 0 1334 1334" version="1.1" xmlns="http://www.w3.org/2000/svg" xmlns:xlink="http://www.w3.org/1999/xlink" xml:space="preserve" xmlns:serif="http://www.serif.com/" style="fill-rule:evenodd;clip-rule:evenodd;stroke-linejoin:round;stroke-miterlimit:2;"><path d="M666.646,1085.7c-141.384,-0 -266.327,-70.053 -342.221,-177.304c-125.034,23.125 -235.869,37.981 -324.423,43.749l-0,381.197l1333.33,0l0,-720.905c-70.261,31.242 -154.727,64.005 -249.741,96.661c-21.224,211.511 -199.789,376.602 -416.946,376.602Zm-666.646,-1085.71l-0,756.775c69.795,-31.021 153.546,-63.541 247.757,-95.962c3.211,-228.683 189.488,-413.184 418.89,-413.184c155.032,0 290.293,84.28 362.781,209.44c116.69,-20.992 220.221,-34.525 303.903,-39.976l0,-417.093l-1333.33,0Zm1108.38,286.557l-53.632,-39.128l-53.634,39.128l20.301,-63.731l-53.635,-37.647l65.248,-0l21.72,-65.251l21.717,65.251l65.248,-0l-53.632,37.647l20.299,63.731Z" style="fill:#000;fill-rule:nonzero;"/></svg>